<svg width="44" height="44" viewBox="0 0 44 44" fill="none" xmlns="http://www.w3.org/2000/svg">
<g clip-path="url(#clip0_34_700)">
<path d="M38.8667 -0.244629H4.6445C1.95562 -0.244629 -0.244385 1.95537 -0.244385 4.64426V38.8665C-0.244385 41.5578 1.95562 43.7554 4.6445 43.7554H21.7556V26.6443H16.8667V20.5943H21.7556V15.5831C21.7556 10.2934 24.7183 6.57782 30.9614 6.57782L35.3687 6.5827V12.9505H32.4427C30.0129 12.9505 29.0889 14.774 29.0889 16.4656V20.5967H35.3663L33.9778 26.6443H29.0889V43.7554H38.8667C41.5556 43.7554 43.7556 41.5578 43.7556 38.8665V4.64426C43.7556 1.95537 41.5556 -0.244629 38.8667 -0.244629Z" fill="white"/>
</g>
<defs>
<clipPath id="clip0_34_700">
<rect width="44" height="44" fill="white"/>
</clipPath>
</defs>
</svg>
