<svg width="24" height="24" viewBox="0 0 24 24" fill="none" xmlns="http://www.w3.org/2000/svg">
<g clip-path="url(#clip0_34_748)">
<path d="M21.2 -0.133301H2.53337C1.0667 -0.133301 -0.133301 1.0667 -0.133301 2.53337V21.2C-0.133301 22.668 1.0667 23.8667 2.53337 23.8667H11.8667V14.5334H9.20003V11.2334H11.8667V8.50003C11.8667 5.6147 13.4827 3.58803 16.888 3.58803L19.292 3.5907V7.06403H17.696C16.3707 7.06403 15.8667 8.0587 15.8667 8.98137V11.2347H19.2907L18.5334 14.5334H15.8667V23.8667H21.2C22.6667 23.8667 23.8667 22.668 23.8667 21.2V2.53337C23.8667 1.0667 22.6667 -0.133301 21.2 -0.133301Z" fill="white"/>
</g>
<defs>
<clipPath id="clip0_34_748">
<rect width="24" height="24" fill="white"/>
</clipPath>
</defs>
</svg>
