<svg width="44" height="44" viewBox="0 0 44 44" fill="none" xmlns="http://www.w3.org/2000/svg">
<g clip-path="url(#clip0_34_702)">
<path d="M43.8583 12.9868C43.8336 11.1393 43.4872 9.31024 42.8345 7.58133C42.2685 6.123 41.404 4.79858 40.2963 3.69268C39.1885 2.58678 37.8619 1.72373 36.4012 1.15867C34.6916 0.518002 32.8856 0.171583 31.06 0.134161C28.7095 0.0292717 27.9642 0 21.9976 0C16.0309 0 15.2661 1.63567e-07 12.9327 0.134161C11.1079 0.171858 9.30272 0.518272 7.59396 1.15867C6.13297 1.72334 4.80614 2.58625 3.69835 3.6922C2.59056 4.79814 1.72621 6.12277 1.1606 7.58133C0.517579 9.28672 0.171336 11.0893 0.136828 12.9112C0.0317636 15.2602 0 16.0042 0 21.961C0 27.9177 -1.82044e-08 28.6788 0.136828 31.0108C0.173478 32.8354 0.517992 34.6356 1.1606 36.3455C1.72716 37.8036 2.59215 39.1277 3.70031 40.2332C4.80847 41.3387 6.13543 42.2012 7.5964 42.7657C9.30048 43.4321 11.106 43.8033 12.9351 43.8634C15.2881 43.9683 16.0333 44 22 44C27.9667 44 28.7315 44 31.0649 43.8634C32.8904 43.8275 34.6966 43.4819 36.406 42.8413C37.8664 42.2756 39.1927 41.4123 40.3004 40.3065C41.408 39.2007 42.2727 37.8766 42.8394 36.4187C43.482 34.7112 43.8265 32.911 43.8632 31.0839C43.9682 28.7373 44 27.9934 44 22.0342C43.9951 16.0774 43.9951 15.3212 43.8583 12.9868ZM21.9829 33.2256C15.7426 33.2256 10.6873 28.1787 10.6873 21.9488C10.6873 15.7188 15.7426 10.6719 21.9829 10.6719C24.9787 10.6719 27.8518 11.86 29.9701 13.9748C32.0885 16.0897 33.2785 18.958 33.2785 21.9488C33.2785 24.9396 32.0885 27.8079 29.9701 29.9227C27.8518 32.0375 24.9787 33.2256 21.9829 33.2256ZM33.7281 12.8844C33.3821 12.8847 33.0395 12.8169 32.7198 12.6848C32.4001 12.5528 32.1096 12.3591 31.8649 12.1149C31.6203 11.8707 31.4263 11.5806 31.294 11.2615C31.1618 10.9423 31.0939 10.6002 31.0942 10.2548C31.0942 9.90964 31.1623 9.56786 31.2946 9.24897C31.4269 8.93009 31.6208 8.64034 31.8653 8.39628C32.1098 8.15222 32.4 7.95861 32.7194 7.82653C33.0388 7.69444 33.3812 7.62646 33.7269 7.62646C34.0726 7.62646 34.415 7.69444 34.7344 7.82653C35.0538 7.95861 35.344 8.15222 35.5885 8.39628C35.833 8.64034 36.0269 8.93009 36.1592 9.24897C36.2915 9.56786 36.3596 9.90964 36.3596 10.2548C36.3596 11.7086 35.1819 12.8844 33.7281 12.8844Z" fill="white"/>
<path d="M22 29.3332C26.0501 29.3332 29.3333 26.0499 29.3333 21.9998C29.3333 17.9497 26.0501 14.6665 22 14.6665C17.9499 14.6665 14.6667 17.9497 14.6667 21.9998C14.6667 26.0499 17.9499 29.3332 22 29.3332Z" fill="white"/>
</g>
<defs>
<clipPath id="clip0_34_702">
<rect width="44" height="44" fill="white"/>
</clipPath>
</defs>
</svg>
