<svg width="20" height="20" viewBox="0 0 20 20" fill="none" xmlns="http://www.w3.org/2000/svg">
<g clip-path="url(#clip0_25_181)">
<path d="M7.42303 3.28479C7.2612 3.28479 7.13007 3.41592 7.13007 3.57776C7.13007 3.73959 7.2612 3.87073 7.42303 3.87073H12.5769C12.7388 3.87073 12.8699 3.73959 12.8699 3.57776C12.8699 3.41592 12.7388 3.28479 12.5769 3.28479H7.42303Z" fill="#252525"/>
<path d="M10.293 13.2701C10.293 13.1082 10.1618 12.9771 10 12.9771C9.83816 12.9771 9.70703 13.1082 9.70703 13.2701V13.4507C9.70703 13.6125 9.83816 13.7437 10 13.7437C10.1618 13.7437 10.293 13.6125 10.293 13.4507V13.2701Z" fill="#252525"/>
<path d="M10.293 14.4828C10.293 14.321 10.1618 14.1899 10 14.1899C9.83816 14.1899 9.70703 14.321 9.70703 14.4828V14.6635C9.70703 14.8253 9.83816 14.9564 10 14.9564C10.1618 14.9564 10.293 14.8253 10.293 14.6635V14.4828Z" fill="#252525"/>
<path d="M10.293 15.6956C10.293 15.5337 10.1618 15.4026 10 15.4026C9.83816 15.4026 9.70703 15.5337 9.70703 15.6956V15.8762C9.70703 16.038 9.83816 16.1692 10 16.1692C10.1618 16.1692 10.293 16.038 10.293 15.8762V15.6956Z" fill="#252525"/>
<path d="M10 16.6154C9.83816 16.6154 9.70703 16.7465 9.70703 16.9083V17.0889C9.70703 17.2507 9.83816 17.3819 10 17.3819C10.1618 17.3819 10.293 17.2507 10.293 17.0889V16.9083C10.293 16.7465 10.1618 16.6154 10 16.6154Z" fill="#252525"/>
<path d="M18.4014 3.2421C18.3218 3.10124 18.143 3.0516 18.0022 3.13128C17.8614 3.21093 17.8117 3.38964 17.8914 3.5305C18.8876 5.29203 19.4141 7.33925 19.4141 9.45081C19.4141 12.9757 17.9201 16.295 15.4178 18.3299C15.0111 18.6605 14.5505 18.5912 14.2549 18.416C13.9573 18.2396 13.6733 17.866 13.769 17.3466C14.0561 15.7873 14.4938 14.2739 15.0699 12.8482C15.3327 12.1978 15.466 11.5093 15.466 10.8019C15.466 9.33464 14.8926 7.95714 13.8513 6.9232C12.8178 5.89699 11.4439 5.32745 9.96069 5.33605C6.96081 5.35714 4.52647 7.81546 4.53409 10.816C4.53577 11.4893 4.65862 12.1466 4.89917 12.7696C5.47702 14.2662 5.91811 15.7985 6.2101 17.3237C6.30999 17.8453 6.02573 18.2216 5.72647 18.4C5.43038 18.5764 4.96936 18.6464 4.56323 18.3144C3.07991 17.1018 1.9387 15.4371 1.26284 13.5001C1.20956 13.3474 1.04249 13.2667 0.889713 13.3201C0.73694 13.3734 0.656276 13.5404 0.709635 13.6932C1.42108 15.7322 2.62538 17.487 4.19237 18.768C4.72026 19.1996 5.44014 19.2527 6.02639 18.9034C6.61674 18.5516 6.91479 17.8884 6.78561 17.2136C6.48702 15.6541 6.03624 14.0878 5.44581 12.5586C5.23116 12.0027 5.12159 11.4159 5.12006 10.8146C5.11659 9.44671 5.68155 8.20507 6.59186 7.31488C6.68725 7.39867 6.78725 7.47656 6.89124 7.54831L6.44921 8.11597C6.21346 8.4187 6.18253 8.83054 6.3703 9.16503L6.66561 9.6912L5.81307 10.5437C5.61838 10.7385 5.61838 11.0553 5.81307 11.25L6.19928 11.6362C6.45342 11.8903 6.78725 12.0174 7.12108 12.0174C7.45491 12.0174 7.78874 11.8903 8.04288 11.6362L8.90647 10.7726C9.41471 10.2643 9.41471 9.4373 8.90647 8.92906L8.52026 8.54285C8.32557 8.34824 8.00874 8.34824 7.81397 8.54285L7.09596 9.26085L6.88124 8.87824C6.80921 8.74999 6.82112 8.59206 6.91151 8.47597L7.40725 7.83929C7.82506 8.02745 8.28194 8.12831 8.74632 8.12831H11.2537C11.7182 8.12831 12.175 8.02745 12.5928 7.83929L13.0885 8.47593C13.1789 8.59206 13.1908 8.74999 13.1188 8.87827L12.9041 9.26089L12.186 8.54285C11.9914 8.34816 11.6745 8.34816 11.4798 8.54285L11.0936 8.92906C10.5853 9.43734 10.5853 10.2644 11.0936 10.7726L11.9572 11.6362C12.2113 11.8903 12.5451 12.0174 12.879 12.0174C13.2128 12.0174 13.5466 11.8903 13.8008 11.6362L14.187 11.25C14.3817 11.0553 14.3817 10.7385 14.187 10.5437L13.3344 9.6912L13.6298 9.16503C13.8176 8.83046 13.7866 8.41867 13.5508 8.11593L13.1087 7.54827C13.2138 7.47577 13.3148 7.39699 13.4111 7.31222C14.3461 8.22617 14.88 9.46316 14.88 10.802C14.88 11.4337 14.7611 12.0484 14.5265 12.6288C13.9357 14.091 13.4869 15.6425 13.1927 17.2405C13.0689 17.9126 13.3686 18.5719 13.9561 18.9201C14.213 19.0725 14.4958 19.1476 14.7769 19.1476C15.1357 19.1476 15.4916 19.0251 15.7874 18.7846C17.0638 17.7467 18.1236 16.3618 18.8521 14.7798C19.6031 13.1491 20 11.3064 20 9.45081C20 7.23835 19.4473 5.0914 18.4014 3.2421ZM8.16714 9.01827L8.4921 9.34327C8.7719 9.62308 8.7719 10.0783 8.4921 10.3581L7.6285 11.2217C7.34874 11.5016 6.89342 11.5016 6.61366 11.2217L6.28866 10.8968L8.16714 9.01827ZM13.3864 11.2218C13.1067 11.5016 12.6514 11.5016 12.3716 11.2218L11.508 10.3582C11.2282 10.0784 11.2282 9.62312 11.508 9.34331L11.833 9.01831L13.7115 10.8968L13.3864 11.2218ZM11.2538 7.5423H8.74635C8.12323 7.5423 7.51663 7.32089 7.03967 6.92667C7.85272 6.30355 8.86631 5.92972 9.96487 5.92199C11.0806 5.9148 12.1198 6.27597 12.9638 6.92382C12.4862 7.31988 11.8785 7.5423 11.2538 7.5423Z" fill="#252525"/>
<path d="M0.94 12.4097C0.705078 11.4515 0.585938 10.4559 0.585938 9.45081C0.585938 6.87686 1.38156 4.38065 2.82629 2.42194C3.19551 1.92136 3.79199 1.62245 4.42188 1.62245H15.5782C16.2081 1.62245 16.8046 1.92132 17.1738 2.4219C17.2158 2.4789 17.2573 2.53647 17.2983 2.5944C17.3918 2.72647 17.5746 2.75776 17.7067 2.66433C17.8388 2.57085 17.8701 2.38804 17.7766 2.25597C17.7334 2.19491 17.6896 2.13421 17.6454 2.07413C17.1662 1.4244 16.3934 1.03655 15.5782 1.03655H14.7675V0.719834C14.7675 0.327061 14.448 0.00756836 14.0552 0.00756836H11.8491C11.4563 0.00756836 11.1368 0.3271 11.1368 0.719834V1.03655H8.86332V0.719834C8.86332 0.327061 8.54379 0.00756836 8.15106 0.00756836H5.94492C5.55215 0.00756836 5.23266 0.3271 5.23266 0.719834V1.03655H4.42191C3.60676 1.03655 2.83398 1.42444 2.35477 2.07413C0.83625 4.13284 0 6.75265 0 9.45081C0 10.5029 0.124805 11.5454 0.370938 12.5492C0.403711 12.683 0.523438 12.7725 0.655234 12.7725C0.67832 12.7725 0.701797 12.7698 0.725234 12.764C0.882383 12.7255 0.978555 12.5669 0.94 12.4097ZM11.7227 0.719756C11.7227 0.650107 11.7794 0.593428 11.849 0.593428H14.0552C14.1248 0.593428 14.1815 0.650107 14.1815 0.719756V1.03647H11.7227V0.719756ZM5.81852 0.719756C5.81852 0.650107 5.8752 0.593428 5.94484 0.593428H8.15098C8.22062 0.593428 8.2773 0.650107 8.2773 0.719756V1.03647H5.81852V0.719756Z" fill="#252525"/>
<path d="M10.966 12.1386H9.03408C8.66708 12.1386 8.36853 12.4372 8.36853 12.8041V19.327C8.36853 19.694 8.66712 19.9925 9.03408 19.9925H10.966C11.3329 19.9925 11.6315 19.6939 11.6315 19.327V18.4008C11.6315 18.2389 11.5003 18.1078 11.3385 18.1078C11.1767 18.1078 11.0455 18.2389 11.0455 18.4008V19.327C11.0455 19.3709 11.0098 19.4066 10.966 19.4066H9.03408C8.99017 19.4066 8.95447 19.3709 8.95447 19.327V12.8041C8.95447 12.7603 8.99017 12.7245 9.03408 12.7245H10.966C11.0098 12.7245 11.0455 12.7603 11.0455 12.8041V16.8773C11.0455 17.0392 11.1767 17.1703 11.3385 17.1703C11.5003 17.1703 11.6315 17.0392 11.6315 16.8773V12.8041C11.6315 12.4371 11.3329 12.1386 10.966 12.1386Z" fill="#252525"/>
</g>
<defs>
<clipPath id="clip0_25_181">
<rect width="20" height="20" fill="white"/>
</clipPath>
</defs>
</svg>
