<svg width="44" height="44" viewBox="0 0 44 44" fill="none" xmlns="http://www.w3.org/2000/svg">
<g clip-path="url(#clip0_34_705)">
<path d="M26.3255 33.6589V29.1615C26.3255 28.2066 26.0486 27.7292 25.4948 27.7292C25.1701 27.7292 24.855 27.8819 24.5495 28.1875V34.6042C24.855 34.9097 25.1701 35.0625 25.4948 35.0625C26.0486 35.0625 26.3255 34.5946 26.3255 33.6589ZM31.5964 30.1641H33.487V29.1901C33.487 28.2161 33.1719 27.7292 32.5417 27.7292C31.9115 27.7292 31.5964 28.2161 31.5964 29.1901V30.1641ZM15.2396 22.5443V24.5495H12.9479V36.6667H10.8281V24.5495H8.59375V22.5443H15.2396ZM20.9974 26.1536V36.6667H19.0781V35.5208C18.3333 36.3802 17.6076 36.8099 16.901 36.8099C16.2708 36.8099 15.8698 36.5425 15.6979 36.0078C15.5833 35.6832 15.526 35.1675 15.526 34.4609V26.1536H17.4167V33.888C17.4167 34.3464 17.4262 34.5946 17.4453 34.6328C17.4644 34.9193 17.6076 35.0625 17.875 35.0625C18.2569 35.0625 18.658 34.7665 19.0781 34.1745V26.1536H20.9974ZM28.2161 29.3333V33.5156C28.2161 34.5087 28.1493 35.2057 28.0156 35.6068C27.7865 36.4089 27.2804 36.8099 26.4974 36.8099C25.829 36.8099 25.1797 36.4184 24.5495 35.6354V36.6667H22.6302V22.5443H24.5495V27.1562C25.1606 26.3924 25.8099 26.0104 26.4974 26.0104C27.2804 26.0104 27.7865 26.4115 28.0156 27.2135C28.1493 27.6146 28.2161 28.3212 28.2161 29.3333ZM35.4062 33.0286V33.2865C35.4062 33.8403 35.3872 34.2509 35.349 34.5182C35.2917 34.9384 35.1484 35.3203 34.9193 35.6641C34.4036 36.428 33.6398 36.8099 32.6276 36.8099C31.6346 36.8099 30.8611 36.447 30.3073 35.7214C29.9062 35.2057 29.7057 34.3845 29.7057 33.2578V29.5625C29.7057 28.4358 29.8967 27.6146 30.2786 27.099C30.8325 26.3733 31.5964 26.0104 32.5703 26.0104C33.5443 26.0104 34.2891 26.3733 34.8047 27.099C35.2057 27.6528 35.4062 28.474 35.4062 29.5625V31.7396H31.5964V33.6016C31.5964 34.5755 31.921 35.0625 32.5703 35.0625C33.0286 35.0625 33.3151 34.8142 33.4297 34.3177C33.4297 34.2986 33.4345 34.2318 33.444 34.1172C33.4536 34.0026 33.4583 33.8451 33.4583 33.6445V33.0286H35.4062ZM22.487 9.42448V13.8932C22.487 14.8672 22.1814 15.3542 21.5703 15.3542C20.9592 15.3542 20.6536 14.8672 20.6536 13.8932V9.42448C20.6536 8.43142 20.9592 7.9349 21.5703 7.9349C22.1814 7.9349 22.487 8.43142 22.487 9.42448ZM37.7552 29.849C37.7552 26.4688 37.5738 23.9861 37.2109 22.401C37.02 21.5608 36.6094 20.8589 35.9792 20.2956C35.349 19.7322 34.6233 19.4028 33.8021 19.3073C31.2049 19.0208 27.2708 18.8776 22 18.8776C16.7483 18.8776 12.8238 19.0208 10.2266 19.3073C9.38628 19.4028 8.65582 19.7322 8.03516 20.2956C7.4145 20.8589 7.00868 21.5608 6.81771 22.401C6.43576 24.0625 6.24479 26.5451 6.24479 29.849C6.24479 33.2101 6.43576 35.6927 6.81771 37.2969C7.00868 38.1181 7.4145 38.8151 8.03516 39.388C8.65582 39.9609 9.37674 40.2951 10.1979 40.3906C12.8142 40.6771 16.7483 40.8203 22 40.8203C27.2517 40.8203 31.1858 40.6771 33.8021 40.3906C34.6233 40.2951 35.3442 39.9609 35.9648 39.388C36.5855 38.8151 36.9913 38.1181 37.1823 37.2969C37.5642 35.6927 37.7552 33.2101 37.7552 29.849ZM16.1276 11.2005L18.7057 2.72135H16.5573L15.0964 8.30729L13.5781 2.72135H11.3438C11.4774 3.16059 11.697 3.81944 12.0026 4.69792L12.6901 6.67448C13.3585 8.64149 13.7977 10.1502 14.0078 11.2005V16.9583H16.1276V11.2005ZM24.4062 13.5208V9.79688C24.4062 8.68924 24.2057 7.85851 23.8047 7.30469C23.2509 6.57899 22.5061 6.21615 21.5703 6.21615C20.5964 6.21615 19.8516 6.57899 19.3359 7.30469C18.9349 7.85851 18.7344 8.68924 18.7344 9.79688V13.5208C18.7344 14.6285 18.9349 15.4592 19.3359 16.013C19.8516 16.7387 20.5964 17.1016 21.5703 17.1016C22.5061 17.1016 23.2509 16.7387 23.8047 16.013C24.2057 15.4974 24.4062 14.6667 24.4062 13.5208ZM29.5911 16.9583H31.5104V6.35938H29.5911V14.4661C29.171 15.0582 28.77 15.3542 28.388 15.3542C28.1016 15.3542 27.9488 15.2014 27.9297 14.8958C27.9106 14.8576 27.901 14.6094 27.901 14.151V6.35938H25.9818V14.7526C25.9818 15.4592 26.0391 15.9844 26.1536 16.3281C26.3637 16.8438 26.7743 17.1016 27.3854 17.1016C28.0729 17.1016 28.8082 16.6719 29.5911 15.8125V16.9583ZM44 8.25V35.75C44 38.0226 43.1931 39.9657 41.5794 41.5794C39.9657 43.1931 38.0226 44 35.75 44H8.25C5.97743 44 4.03429 43.1931 2.42057 41.5794C0.806858 39.9657 0 38.0226 0 35.75V8.25C0 5.97743 0.806858 4.03429 2.42057 2.42057C4.03429 0.806858 5.97743 0 8.25 0H35.75C38.0226 0 39.9657 0.806858 41.5794 2.42057C43.1931 4.03429 44 5.97743 44 8.25Z" fill="white"/>
</g>
<defs>
<clipPath id="clip0_34_705">
<rect width="44" height="44" fill="white"/>
</clipPath>
</defs>
</svg>
