<svg width="24" height="24" viewBox="0 0 24 24" fill="none" xmlns="http://www.w3.org/2000/svg">
<g clip-path="url(#clip0_34_755)">
<path d="M9.95211 0.00234292H9.66333C8.27521 0.00234292 6.88708 -0.00292866 5.49895 0.00234292C2.5065 0.0151453 0.0511089 2.36025 0.026662 5.3176C-0.00848044 9.77284 -0.00848044 14.2283 0.026662 18.6841C0.0511089 21.6392 2.50726 23.9865 5.5043 23.9933C9.83344 24.0033 14.1626 24.0033 18.4917 23.9933C19.6275 23.9967 20.736 23.6508 21.663 23.0038C22.5899 22.3568 23.289 21.4409 23.663 20.3838C23.8158 19.9447 23.8876 19.4756 23.9969 19.0207C23.8262 19.0483 23.6644 19.1152 23.5247 19.2157C20.2565 21.3334 16.6949 22.0985 12.8483 21.3696C11.8055 21.1723 10.7932 20.7972 9.78557 20.4523C9.05751 20.203 8.39133 20.2332 7.73737 20.6285C7.6075 20.7076 7.47533 20.7829 7.3424 20.8545C6.24993 21.4614 5.06273 21.7167 3.83962 21.5164C3.6471 21.4848 3.38124 21.35 3.33464 21.2031C3.2888 21.0683 3.43624 20.8115 3.58598 20.676C3.68835 20.5849 3.79989 20.5013 3.90914 20.4154C4.43246 20.0057 4.9023 19.5637 5.22163 18.9748C5.70752 18.0997 5.6548 17.7209 5.01995 16.9377C2.29335 13.6045 1.70357 9.9468 3.51952 6.02851C4.76707 3.33624 7.07502 1.75778 9.6152 0.247095C9.70382 0.193626 9.95211 0.00234292 9.95211 0.00234292Z" fill="white"/>
<path d="M8.49303 11.9515H10.2883C10.4541 11.9515 10.6199 11.9432 10.7849 11.9515C11.2173 11.9831 11.461 12.1933 11.4565 12.5246C11.4519 12.856 11.1883 13.1083 10.7887 13.1128C9.73218 13.1263 8.67409 13.1384 7.61829 13.109C6.91391 13.0894 6.6534 12.5246 7.05601 11.9447C7.83373 10.8264 8.62214 9.71637 9.40444 8.6018C9.47396 8.5024 9.53584 8.39772 9.64509 8.22526H7.7176C7.16525 8.22526 6.89023 8.05281 6.89328 7.71317C6.89787 7.33286 7.1622 7.15212 7.71913 7.15137C8.64888 7.15137 9.57862 7.15137 10.5084 7.15137C10.7796 7.15137 11.1195 7.15137 11.1784 7.4526C11.2326 7.71919 11.2066 8.07766 11.0607 8.29455C10.3151 9.40685 9.52133 10.4823 8.74437 11.5697C8.67256 11.6699 8.60839 11.7753 8.49303 11.9515Z" fill="white"/>
<path d="M14.756 12.7203C14.1204 13.243 13.3854 13.2475 12.6643 12.8386C11.8797 12.3972 11.6635 11.6336 11.6772 10.8052C11.6902 10.0845 11.9499 9.43085 12.5565 8.96545C13.3396 8.36298 14.0906 8.3803 14.8385 9.0144C14.9064 8.92775 14.9797 8.84526 15.0578 8.76739C15.1288 8.69969 15.2169 8.65194 15.313 8.62907C15.409 8.6062 15.5095 8.60904 15.6041 8.6373C15.6987 8.66556 15.7839 8.7182 15.8509 8.7898C15.9179 8.86139 15.9643 8.94933 15.9852 9.04452C16.023 9.22835 16.0394 9.41582 16.0341 9.60331C16.0341 10.5183 16.0448 11.4333 16.0341 12.3475C16.0265 12.9041 15.7453 13.2068 15.3313 13.0954C15.1387 13.0449 14.9829 12.8755 14.756 12.7203ZM13.8392 9.69895C13.264 9.69895 12.856 10.1764 12.8461 10.861C12.8362 11.5455 13.2716 12.0538 13.8614 12.0425C14.4275 12.0343 14.8355 11.5372 14.8286 10.861C14.8217 10.1847 14.4183 9.70121 13.8423 9.70121L13.8392 9.69895Z" fill="white"/>
<path d="M20.2848 13.1141C18.9861 13.1028 18.0693 12.1653 18.1304 10.8406C18.1931 9.45792 18.8944 8.63631 20.3116 8.54819C21.4484 8.47289 22.5057 9.7102 22.4835 10.9355C22.4621 12.1991 21.5263 13.1247 20.2848 13.1141ZM21.197 10.7954C21.1917 10.7389 21.1894 10.6003 21.1664 10.4655C21.0901 10.0137 20.8372 9.75388 20.446 9.70719C19.977 9.64995 19.6378 9.84802 19.4529 10.2856C19.3666 10.4812 19.3245 10.693 19.3297 10.9063C19.3348 11.1196 19.387 11.3292 19.4827 11.5206C19.6637 11.9039 19.9754 12.0771 20.3994 12.0425C20.9342 11.9981 21.1955 11.6155 21.197 10.7954Z" fill="white"/>
<path d="M16.5277 9.92201C16.5277 9.10642 16.5231 8.29083 16.5277 7.47449C16.5277 7.31483 16.5223 7.11376 16.6109 7.00456C16.7324 6.85696 16.9425 6.6958 17.1144 6.6958C17.2863 6.6958 17.478 6.86073 17.6339 6.98574C17.6973 7.03619 17.7149 7.171 17.7149 7.26814C17.7149 9.03789 17.7263 10.8076 17.708 12.5766C17.708 12.9788 17.4421 13.152 17.038 13.1128C16.6904 13.0797 16.5345 12.8907 16.53 12.4448C16.5215 11.6044 16.5277 10.7624 16.5277 9.92201Z" fill="white"/>
</g>
<defs>
<clipPath id="clip0_34_755">
<rect width="24" height="24" fill="white"/>
</clipPath>
</defs>
</svg>
