<svg width="44" height="44" viewBox="0 0 44 44" fill="none" xmlns="http://www.w3.org/2000/svg">
<g clip-path="url(#clip0_34_707)">
<path d="M18.2453 0.00429536H17.7159C15.171 0.00429536 12.6261 -0.0053692 10.0812 0.00429536C4.59499 0.0277664 0.0934454 4.32712 0.048626 9.74894C-0.0158018 17.9169 -0.0158018 26.0853 0.048626 34.2541C0.0934454 39.6718 4.59639 43.9753 10.091 43.9877C18.0277 44.0061 25.9645 44.0061 33.9012 43.9877C35.9835 43.9939 38.0158 43.3597 39.7152 42.1736C41.4146 40.9875 42.6963 39.3084 43.3819 37.3703C43.6621 36.5653 43.7937 35.7052 43.994 34.8713C43.681 34.922 43.3845 35.0445 43.1284 35.2289C37.1366 39.1113 30.607 40.514 23.555 39.1775C21.6432 38.8158 19.7874 38.1282 17.94 37.4959C16.6052 37.0389 15.3838 37.0941 14.1849 37.819C13.9468 37.9639 13.7045 38.102 13.4608 38.2332C11.458 39.346 9.28141 39.814 7.03905 39.4468C6.68609 39.3888 6.19868 39.1416 6.11325 38.8724C6.02921 38.6253 6.29953 38.1545 6.57404 37.906C6.76173 37.7389 6.96621 37.5856 7.1665 37.4282C8.12592 36.6772 8.98729 35.8667 9.57274 34.7871C10.4635 33.1827 10.3669 32.4883 9.20298 31.0524C4.20422 24.9416 3.12295 18.2358 6.45219 11.0523C8.73938 6.11644 12.9706 3.22259 17.6276 0.453007C17.7901 0.354981 18.2453 0.00429536 18.2453 0.00429536Z" fill="white"/>
<path d="M15.5705 21.9111H18.8619C19.1659 21.9111 19.4698 21.8959 19.7723 21.9111C20.5651 21.9691 21.0119 22.3543 21.0035 22.9618C20.9951 23.5693 20.5118 24.0318 19.7793 24.0401C17.8423 24.0649 15.9025 24.087 13.9668 24.0332C12.6755 23.9973 12.1979 22.9618 12.936 21.8987C14.3618 19.8484 15.8072 17.8133 17.2414 15.77C17.3689 15.5877 17.4823 15.3958 17.6826 15.0796H14.1489C13.1363 15.0796 12.632 14.7635 12.6376 14.1408C12.646 13.4436 13.1307 13.1122 14.1517 13.1108C15.8562 13.1108 17.5608 13.1108 19.2653 13.1108C19.7625 13.1108 20.3858 13.1108 20.4936 13.6631C20.5931 14.1519 20.5455 14.809 20.2779 15.2067C18.911 17.2459 17.4557 19.2175 16.0313 21.2111C15.8997 21.3948 15.782 21.588 15.5705 21.9111Z" fill="white"/>
<path d="M27.0527 23.3207C25.8874 24.2788 24.54 24.2871 23.2178 23.5374C21.7794 22.7284 21.383 21.3284 21.4082 19.8097C21.4321 18.4884 21.9083 17.29 23.0203 16.4367C24.456 15.3322 25.8328 15.364 27.204 16.5265C27.3285 16.3676 27.4627 16.2164 27.6059 16.0736C27.7362 15.9495 27.8977 15.862 28.0738 15.82C28.2499 15.7781 28.4342 15.7833 28.6076 15.8351C28.7809 15.8869 28.9371 15.9835 29.0599 16.1147C29.1828 16.246 29.2678 16.4072 29.3063 16.5817C29.3755 16.9187 29.4056 17.2624 29.3959 17.6061C29.3959 19.2836 29.4155 20.9611 29.3959 22.6372C29.3819 23.6575 28.8665 24.2126 28.1073 24.0082C27.7544 23.9157 27.4687 23.6051 27.0527 23.3207ZM25.372 17.7815C24.3173 17.7815 23.5694 18.6568 23.5512 19.9118C23.533 21.1668 24.3313 22.0988 25.4126 22.0781C26.4504 22.0629 27.1984 21.1517 27.1857 19.9118C27.1731 18.672 26.4336 17.7856 25.3776 17.7856L25.372 17.7815Z" fill="white"/>
<path d="M37.1888 24.0429C34.8078 24.0222 33.1271 22.3033 33.2391 19.8747C33.354 17.3398 34.6397 15.8336 37.2379 15.672C39.322 15.5339 41.2604 17.8024 41.2198 20.0487C41.1806 22.3654 39.4648 24.0622 37.1888 24.0429ZM38.8612 19.7919C38.8514 19.6883 38.8472 19.4343 38.8051 19.1872C38.6651 18.3588 38.2015 17.8824 37.4844 17.7968C36.6244 17.6919 36.0025 18.055 35.6636 18.8572C35.5054 19.2159 35.4283 19.6042 35.4377 19.9952C35.4472 20.3863 35.5429 20.7706 35.7182 21.1214C36.0502 21.8242 36.6216 22.1418 37.3989 22.0782C38.3794 21.9968 38.8584 21.2954 38.8612 19.7919Z" fill="white"/>
<path d="M30.3007 18.1901C30.3007 16.6949 30.2923 15.1996 30.3007 13.703C30.3007 13.4103 30.2909 13.0417 30.4534 12.8415C30.6761 12.5708 31.0612 12.2754 31.3764 12.2754C31.6915 12.2754 32.043 12.5778 32.3288 12.8069C32.445 12.8994 32.4772 13.1466 32.4772 13.3247C32.4772 16.5692 32.4982 19.8138 32.4646 23.0569C32.4646 23.7942 31.9772 24.1117 31.2363 24.0399C30.599 23.9792 30.3133 23.6326 30.3049 22.8153C30.2895 21.2745 30.3007 19.7309 30.3007 18.1901Z" fill="white"/>
</g>
<defs>
<clipPath id="clip0_34_707">
<rect width="44" height="44" fill="white"/>
</clipPath>
</defs>
</svg>
